<?xml version="1.0" encoding="UTF-8" standalone="no"?>
<svg
   xmlns:dc="http://purl.org/dc/elements/1.1/"
   xmlns:cc="http://creativecommons.org/ns#"
   xmlns:rdf="http://www.w3.org/1999/02/22-rdf-syntax-ns#"
   xmlns:svg="http://www.w3.org/2000/svg"
   xmlns="http://www.w3.org/2000/svg"
   xmlns:sodipodi="http://sodipodi.sourceforge.net/DTD/sodipodi-0.dtd"
   xmlns:inkscape="http://www.inkscape.org/namespaces/inkscape"
   width="27.998583mm"
   height="3.2358541mm"
   viewBox="0 0 27.998583 3.2358541"
   version="1.1"
   id="svg356"
   inkscape:version="1.0.2 (e86c870879, 2021-01-15)"
   sodipodi:docname="Tagline.svg">
  <defs
     id="defs350" />
  <sodipodi:namedview
     id="base"
     pagecolor="#ffffff"
     bordercolor="#666666"
     borderopacity="1.0"
     inkscape:pageopacity="0.0"
     inkscape:pageshadow="2"
     inkscape:zoom="3.8087945"
     inkscape:cx="88.465317"
     inkscape:cy="62.947563"
     inkscape:document-units="mm"
     inkscape:current-layer="layer1"
     inkscape:document-rotation="0"
     showgrid="false"
     inkscape:window-width="954"
     inkscape:window-height="1012"
     inkscape:window-x="960"
     inkscape:window-y="40"
     inkscape:window-maximized="0" />
  <metadata
     id="metadata353">
    <rdf:RDF>
      <cc:Work
         rdf:about="">
        <dc:format>image/svg+xml</dc:format>
        <dc:type
           rdf:resource="http://purl.org/dc/dcmitype/StillImage" />
        <dc:title></dc:title>
      </cc:Work>
    </rdf:RDF>
  </metadata>
  <g
     inkscape:label="Layer 1"
     inkscape:groupmode="layer"
     id="layer1"
     transform="translate(-63.440458,-86.496933)">
    <g
       id="g208"
       transform="matrix(0.26458333,0,0,0.26458333,58.656792,68.227454)">
      <path
         d="m 31.05,77.42 h 0.57 a 0.88,0.88 0 0 0 0.35,0.63 1.6,1.6 0 0 0 1.67,0 0.78,0.78 0 0 0 0.31,-0.64 0.7,0.7 0 0 0 -0.19,-0.49 1.4,1.4 0 0 0 -0.6,-0.29 L 32.3,76.4 A 1.65,1.65 0 0 1 31.51,75.97 1.1,1.1 0 0 1 31.2,75.16 1.19,1.19 0 0 1 31.44,74.42 1.39,1.39 0 0 1 32,74 a 2.06,2.06 0 0 1 0.79,-0.15 2.27,2.27 0 0 1 0.59,0.08 2.38,2.38 0 0 1 0.51,0.24 1.1,1.1 0 0 1 0.38,0.42 1.38,1.38 0 0 1 0.16,0.61 h -0.56 a 0.94,0.94 0 0 0 -0.32,-0.61 1.41,1.41 0 0 0 -1.53,0 0.68,0.68 0 0 0 -0.29,0.6 c 0,0.36 0.22,0.61 0.67,0.73 l 0.84,0.22 a 2.15,2.15 0 0 1 0.92,0.47 1.08,1.08 0 0 1 0.32,0.82 1.23,1.23 0 0 1 -0.5,1.05 2.38,2.38 0 0 1 -2.05,0.24 1.27,1.27 0 0 1 -0.53,-0.33 1.63,1.63 0 0 1 -0.28,-0.44 1.34,1.34 0 0 1 -0.07,-0.53 z"
         id="path138"
         style="fill:#11142c" />
      <path
         d="M 40.8,78.19 V 78.7 H 38 v -4.77 h 2.8 v 0.5 H 38.53 V 76 h 2.14 v 0.51 h -2.14 v 1.68 z"
         id="path140"
         style="fill:#11142c" />
      <path
         d="m 44.67,76 v 0.7 a 1.82,1.82 0 0 0 0.33,1.19 1.21,1.21 0 0 0 1,0.4 1.22,1.22 0 0 0 0.86,-0.29 1,1 0 0 0 0.31,-0.71 h 0.55 a 1.34,1.34 0 0 1 -0.11,0.51 2,2 0 0 1 -0.3,0.49 1.61,1.61 0 0 1 -0.55,0.37 2.18,2.18 0 0 1 -0.79,0.14 1.71,1.71 0 0 1 -1.35,-0.55 2.23,2.23 0 0 1 -0.49,-1.56 V 76 a 2.27,2.27 0 0 1 0.5,-1.58 1.69,1.69 0 0 1 1.37,-0.59 1.87,1.87 0 0 1 0.76,0.14 1.37,1.37 0 0 1 0.55,0.37 2.29,2.29 0 0 1 0.32,0.51 1.65,1.65 0 0 1 0.11,0.57 H 47.19 A 1.1,1.1 0 0 0 46.87,74.66 1.18,1.18 0 0 0 46,74.33 1.16,1.16 0 0 0 45.05,74.76 1.89,1.89 0 0 0 44.67,76 Z"
         id="path142"
         style="fill:#11142c" />
      <path
         d="M 51.68,73.93 V 77 A 1.26,1.26 0 0 0 52,78 1.22,1.22 0 0 0 52.91,78.34 1.18,1.18 0 0 0 53.8,78 1.22,1.22 0 0 0 54.14,77.09 V 73.93 H 54.7 V 77 a 1.7,1.7 0 0 1 -0.5,1.27 1.74,1.74 0 0 1 -1.29,0.49 2,2 0 0 1 -0.94,-0.22 1.59,1.59 0 0 1 -0.63,-0.63 1.87,1.87 0 0 1 -0.22,-0.92 v -3.1 z"
         id="path144"
         style="fill:#11142c" />
      <path
         d="m 60,73.93 a 1.83,1.83 0 0 1 0.68,0.11 1.3,1.3 0 0 1 0.48,0.32 1.5,1.5 0 0 1 0.26,0.44 1.57,1.57 0 0 1 0.09,0.54 1.37,1.37 0 0 1 -0.25,0.86 1.55,1.55 0 0 1 -0.64,0.47 l 1,2 H 61 l -0.89,-1.92 h -1.2 v 1.95 h -0.57 v -4.77 z m -1.13,2.35 h 1 a 1.16,1.16 0 0 0 0.77,-0.23 0.87,0.87 0 0 0 0.26,-0.67 0.91,0.91 0 0 0 -0.27,-0.71 1.05,1.05 0 0 0 -0.73,-0.24 h -0.99 z"
         id="path146"
         style="fill:#11142c" />
      <path
         d="m 67.91,78.19 v 0.51 h -2.84 v -4.77 h 2.84 v 0.5 H 65.64 V 76 h 2.14 v 0.51 h -2.14 v 1.68 z"
         id="path148"
         style="fill:#11142c" />
      <path
         d="m 75.57,78.7 h -0.51 v -4.77 h 0.54 l 1.61,3.82 1.6,-3.82 h 0.55 v 4.77 h -0.51 v -3.56 l -1.36,3.19 H 77 l -1.4,-3.19 z"
         id="path150"
         style="fill:#11142c" />
      <path
         d="m 85.9,78.19 v 0.51 h -2.84 v -4.77 h 2.84 v 0.5 H 83.62 V 76 h 2.15 v 0.51 h -2.15 v 1.68 z"
         id="path152"
         style="fill:#11142c" />
      <path
         d="m 92.21,78.19 v 0.51 h -2.84 v -4.77 h 2.84 v 0.5 H 89.93 V 76 h 2.15 v 0.51 h -2.15 v 1.68 z"
         id="path154"
         style="fill:#11142c" />
      <path
         d="M 97.42,78.7 H 96.86 V 74.43 H 95.4 v -0.5 h 3.48 v 0.5 h -1.46 z"
         id="path156"
         style="fill:#11142c" />
      <path
         d="m 102.73,78.7 h -0.56 v -4.77 h 0.56 z"
         id="path158"
         style="fill:#11142c" />
      <path
         d="m 107,78.7 h -0.57 V 73.93 H 107 l 2.44,3.81 V 73.93 H 110 v 4.77 h -0.56 L 107,74.88 Z"
         id="path160"
         style="fill:#11142c" />
      <path
         d="m 117.14,75.37 h -0.55 a 1.06,1.06 0 0 0 -0.4,-0.78 1.28,1.28 0 0 0 -0.8,-0.26 1.22,1.22 0 0 0 -1,0.41 1.76,1.76 0 0 0 -0.37,1.23 v 0.66 a 2,2 0 0 0 0.33,1.22 1.17,1.17 0 0 0 1,0.44 1.3,1.3 0 0 0 0.88,-0.3 1,1 0 0 0 0.35,-0.78 v -0.48 h -1.27 v -0.51 h 1.81 v 1 a 1.54,1.54 0 0 1 -0.23,0.82 1.55,1.55 0 0 1 -0.33,0.39 1.53,1.53 0 0 1 -0.51,0.27 2.19,2.19 0 0 1 -0.7,0.11 1.71,1.71 0 0 1 -1.39,-0.57 2.43,2.43 0 0 1 -0.48,-1.6 V 76 a 2.23,2.23 0 0 1 0.52,-1.58 1.74,1.74 0 0 1 1.37,-0.56 1.7,1.7 0 0 1 1.24,0.44 1.64,1.64 0 0 1 0.53,1.07 z"
         id="path162"
         style="fill:#11142c" />
      <path
         d="M 120.42,77.42 H 121 a 0.92,0.92 0 0 0 0.35,0.63 1.39,1.39 0 0 0 0.86,0.24 1.32,1.32 0 0 0 0.81,-0.23 0.76,0.76 0 0 0 0.31,-0.64 0.66,0.66 0 0 0 -0.19,-0.49 1.4,1.4 0 0 0 -0.6,-0.29 l -0.85,-0.23 a 1.6,1.6 0 0 1 -0.79,-0.43 1.06,1.06 0 0 1 -0.31,-0.81 1.25,1.25 0 0 1 0.23,-0.74 1.45,1.45 0 0 1 0.6,-0.47 2.09,2.09 0 0 1 0.79,-0.15 2.27,2.27 0 0 1 0.59,0.08 2.25,2.25 0 0 1 0.52,0.24 1.29,1.29 0 0 1 0.38,0.42 1.52,1.52 0 0 1 0.15,0.61 h -0.56 a 0.9,0.9 0 0 0 -0.32,-0.61 1.18,1.18 0 0 0 -0.77,-0.23 1.22,1.22 0 0 0 -0.76,0.22 0.7,0.7 0 0 0 -0.29,0.6 c 0,0.36 0.23,0.61 0.68,0.73 l 0.83,0.22 a 2.15,2.15 0 0 1 0.92,0.47 1.08,1.08 0 0 1 0.32,0.82 1.23,1.23 0 0 1 -0.5,1.05 2.09,2.09 0 0 1 -1.26,0.37 2.15,2.15 0 0 1 -0.79,-0.13 1.23,1.23 0 0 1 -0.52,-0.33 1.67,1.67 0 0 1 -0.29,-0.44 1.33,1.33 0 0 1 -0.12,-0.48 z"
         id="path164"
         style="fill:#11142c" />
      <path
         d="m 22.44,69.05 c 0,1.33 -4.36,2.36 -4.36,2.36 v 4.26 a 5.32,5.32 0 0 0 2.66,4.61 l 1.7,1 1.71,-1 a 5.32,5.32 0 0 0 2.66,-4.61 v -4.26 c 0,0 -4.37,-1.03 -4.37,-2.36 z m 1.14,8.36 a 0.14,0.14 0 0 1 -0.14,0.19 h -2.11 a 0.15,0.15 0 0 1 -0.15,-0.19 l 0.6,-2.36 A 1.25,1.25 0 0 1 22.11,72.74 1.25,1.25 0 0 1 23.63,74 1.22,1.22 0 0 1 23,75.05 Z"
         fill="#c82128"
         id="path168" />
    </g>
  </g>
</svg>
