<?xml version="1.0" encoding="UTF-8" standalone="no"?>
<svg
   xmlns:dc="http://purl.org/dc/elements/1.1/"
   xmlns:cc="http://creativecommons.org/ns#"
   xmlns:rdf="http://www.w3.org/1999/02/22-rdf-syntax-ns#"
   xmlns:svg="http://www.w3.org/2000/svg"
   xmlns="http://www.w3.org/2000/svg"
   xmlns:sodipodi="http://sodipodi.sourceforge.net/DTD/sodipodi-0.dtd"
   xmlns:inkscape="http://www.inkscape.org/namespaces/inkscape"
   width="10.014479mm"
   height="9.1916256mm"
   viewBox="0 0 10.014479 9.1916256"
   version="1.1"
   id="svg310"
   inkscape:version="1.0.2 (e86c870879, 2021-01-15)"
   sodipodi:docname="skycomm-icon.svg">
  <defs
     id="defs304" />
  <sodipodi:namedview
     id="base"
     pagecolor="#ffffff"
     bordercolor="#666666"
     borderopacity="1.0"
     inkscape:pageopacity="0.0"
     inkscape:pageshadow="2"
     inkscape:zoom="5.2273247"
     inkscape:cx="27.107866"
     inkscape:cy="42.528149"
     inkscape:document-units="mm"
     inkscape:current-layer="layer1"
     inkscape:document-rotation="0"
     showgrid="false"
     inkscape:window-width="954"
     inkscape:window-height="1012"
     inkscape:window-x="960"
     inkscape:window-y="40"
     inkscape:window-maximized="0" />
  <metadata
     id="metadata307">
    <rdf:RDF>
      <cc:Work
         rdf:about="">
        <dc:format>image/svg+xml</dc:format>
        <dc:type
           rdf:resource="http://purl.org/dc/dcmitype/StillImage" />
        <dc:title />
      </cc:Work>
    </rdf:RDF>
  </metadata>
  <g
     inkscape:label="Layer 1"
     inkscape:groupmode="layer"
     id="layer1"
     transform="translate(-42.150273,-38.453101)">
    <path
       d="m 51.066731,46.581097 a 28.045833,28.045833 0 0 0 -2.38125,-2.96333 c 0.240771,-0.19315 0.484187,-0.38629 0.73025,-0.57415 0.947208,0.85196 1.852083,1.71715 2.749021,2.56117 a 28.426833,28.426833 0 0 0 -2.315104,-2.8866 26.487437,26.487437 0 0 1 2.275416,-1.508128 l -0.145521,-0.717021 a 19.073812,19.073812 0 0 0 -2.645833,1.693334 c -0.166687,-0.169334 -0.336021,-0.338667 -0.508,-0.502709 a 26.744083,26.744083 0 0 1 2.312458,-1.534583 l -0.142875,-0.719667 a 19.012958,19.012958 0 0 0 -2.709333,1.751542 q -0.264583,-0.243417 -0.547687,-0.47625 a 26.341916,26.341916 0 0 1 2.312458,-1.534583 l -0.142875,-0.717021 a 18.883312,18.883312 0 0 0 -2.754313,1.783292 18.716625,18.716625 0 0 0 -2.751666,-1.783292 l -0.142875,0.717021 a 26.296937,26.296937 0 0 1 2.309812,1.534583 q -0.277812,0.232833 -0.547687,0.47625 a 18.838333,18.838333 0 0 0 -2.709333,-1.751542 l -0.145521,0.719667 a 26.341916,26.341916 0 0 1 2.312458,1.534583 c -0.171979,0.164042 -0.341312,0.333375 -0.508,0.502709 a 18.888604,18.888604 0 0 0 -2.645833,-1.693334 l -0.145521,0.717021 a 26.487437,26.487437 0 0 1 2.275417,1.508128 28.426833,28.426833 0 0 0 -2.304521,2.87866 c 0.896937,-0.83608 1.799166,-1.70127 2.749021,-2.55323 0.246062,0.18786 0.489479,0.381 0.73025,0.57415 a 28.045833,28.045833 0 0 0 -2.38125,2.96333 c 0.912812,-0.85989 1.838854,-1.74625 2.809874,-2.61408 0.227542,0.1905 0.455084,0.38365 0.67998,0.57944 a 27.540479,27.540479 0 0 0 -2.513542,3.09827 c 0.9525,-0.89958 1.918229,-1.82298 2.934229,-2.72786 1.018646,0.90488 1.984375,1.82828 2.936875,2.72786 a 27.836812,27.836812 0 0 0 -2.518833,-3.10621 c 0.224896,-0.19579 0.452437,-0.38894 0.679979,-0.57944 0.971021,0.86784 1.897062,1.75419 2.809875,2.61409 z m -2.198688,-4.02166 c -0.224895,0.18256 -0.4445,0.37041 -0.658812,0.56091 q -0.264583,-0.26458 -0.529167,-0.52916 c 0.211667,-0.171982 0.423334,-0.341315 0.640292,-0.508003 z m -1.709208,-1.410232 c 0.198438,0.153458 0.394229,0.309563 0.590021,0.465667 -0.201083,0.166687 -0.396875,0.333375 -0.590021,0.505354 -0.1905,-0.171979 -0.386292,-0.338667 -0.587375,-0.505354 z m -1.706562,1.410232 0.55827,-0.478899 c 0.214313,0.166688 0.428625,0.336021 0.640292,0.507999 q -0.264583,0.26458 -0.529167,0.52917 c -0.216958,-0.1905 -0.436562,-0.37836 -0.658812,-0.56092 z m 1.706562,1.55046 c -0.195792,-0.19844 -0.396875,-0.39423 -0.600604,-0.58473 0.198437,-0.17463 0.399521,-0.34661 0.600604,-0.52917 q 0.304271,0.26458 0.60325,0.52917 c -0.216958,0.1905 -0.410104,0.38629 -0.608542,0.58473 z"
       fill-rule="evenodd"
       id="path136"
       style="fill:#ffffff;stroke-width:0.264583" />
  </g>
</svg>
