<?xml version="1.0" encoding="UTF-8" standalone="no"?>
<svg
   xmlns:dc="http://purl.org/dc/elements/1.1/"
   xmlns:cc="http://creativecommons.org/ns#"
   xmlns:rdf="http://www.w3.org/1999/02/22-rdf-syntax-ns#"
   xmlns:svg="http://www.w3.org/2000/svg"
   xmlns="http://www.w3.org/2000/svg"
   xmlns:sodipodi="http://sodipodi.sourceforge.net/DTD/sodipodi-0.dtd"
   xmlns:inkscape="http://www.inkscape.org/namespaces/inkscape"
   width="37.573837mm"
   height="5.3133478mm"
   viewBox="0 0 37.573837 5.3133477"
   version="1.1"
   id="svg356"
   inkscape:version="1.0.2 (e86c870879, 2021-01-15)"
   sodipodi:docname="Logo.svg">
  <defs
     id="defs350" />
  <sodipodi:namedview
     id="base"
     pagecolor="#ffffff"
     bordercolor="#666666"
     borderopacity="1.0"
     inkscape:pageopacity="0.0"
     inkscape:pageshadow="2"
     inkscape:zoom="3.8087945"
     inkscape:cx="135.31637"
     inkscape:cy="59.598471"
     inkscape:document-units="mm"
     inkscape:current-layer="layer1"
     inkscape:document-rotation="0"
     showgrid="false"
     inkscape:window-width="954"
     inkscape:window-height="1012"
     inkscape:window-x="960"
     inkscape:window-y="40"
     inkscape:window-maximized="0" />
  <metadata
     id="metadata353">
    <rdf:RDF>
      <cc:Work
         rdf:about="">
        <dc:format>image/svg+xml</dc:format>
        <dc:type
           rdf:resource="http://purl.org/dc/dcmitype/StillImage" />
        <dc:title></dc:title>
      </cc:Work>
    </rdf:RDF>
  </metadata>
  <g
     inkscape:label="Layer 1"
     inkscape:groupmode="layer"
     id="layer1"
     transform="translate(-51.044451,-87.383047)">
    <g
       id="g366"
       transform="matrix(0.26458333,0,0,0.26458333,51.047455,76.86902)">
      <path
         d="M 11.43,49 6.27,46.07 A 8.19,8.19 0 0 1 4.69,45 1.68,1.68 0 0 1 4.11,43.52 a 2.26,2.26 0 0 1 1,-1.76 4.38,4.38 0 0 1 2.6,-0.69 4.58,4.58 0 0 1 3,0.9 2.87,2.87 0 0 1 1.11,2.34 h 0.27 l 0.41,-3.65 0.08,-0.58 H 10.51 L 9.86,40 C 9.21,40 8.58,39.91 8,39.88 7.42,39.85 6.9,39.82 6.54,39.82 A 7.5,7.5 0 0 0 3.45,40.41 5,5 0 0 0 1.38,42.07 5.18,5.18 0 0 0 0.48,44.65 5.25,5.25 0 0 0 1,47.78 5.53,5.53 0 0 0 3.43,50 L 8,52.65 a 6.24,6.24 0 0 1 2,1.35 2.34,2.34 0 0 1 0.6,1.57 2.55,2.55 0 0 1 -1,2 A 4.27,4.27 0 0 1 6.75,58.45 6.08,6.08 0 0 1 3.7,57.7 4.85,4.85 0 0 1 1.78,55.7 5,5 0 0 1 1.22,53.06 H 1 A 5.55,5.55 0 0 0 0.35,54.54 7.39,7.39 0 0 0 0,56.42 3.84,3.84 0 0 0 0.21,58 a 4.88,4.88 0 0 0 1.42,0.89 9.33,9.33 0 0 0 2.1,0.61 14.16,14.16 0 0 0 2.6,0.22 9.45,9.45 0 0 0 5.67,-1.54 5.38,5.38 0 0 0 2.22,-4.33 4.91,4.91 0 0 0 -0.64,-3 A 5.07,5.07 0 0 0 11.43,49 Z"
         fill="#c82128"
         id="path120" />
      <path
         d="m 22.39,58.63 a 1.37,1.37 0 0 1 -0.42,-1 v -13 a 1.39,1.39 0 0 1 0.42,-1 1.42,1.42 0 0 1 1.05,-0.42 h 0.27 V 42.9 h -8.19 v 0.28 h 0.33 a 1.38,1.38 0 0 1 1,0.41 1.45,1.45 0 0 1 0.46,1 v 13 a 1.45,1.45 0 0 1 -0.46,1 1.42,1.42 0 0 1 -1,0.41 h -0.3 v 0.27 h 8.16 V 59 h -0.27 a 1.46,1.46 0 0 1 -1.05,-0.37 z"
         fill="#c82128"
         id="path122" />
      <path
         d="m 31.85,57.32 -5.46,-8.19 4,-4.83 a 3.14,3.14 0 0 1 1.11,-0.84 3.28,3.28 0 0 1 1.43,-0.31 H 33 V 42.9 h -5.55 v 0.25 h 0.25 a 0.65,0.65 0 0 1 0.64,0.34 0.67,0.67 0 0 1 -0.12,0.75 L 22.7,51.8 a 3.41,3.41 0 0 0 0.19,0.34 l 0.52,0.84 0.7,1.1 c 0.24,0.39 0.49,0.78 0.73,1.18 l 0.69,1.06 c 0.21,0.32 0.37,0.55 0.48,0.7 a 4.38,4.38 0 0 0 1.55,1.37 7.4,7.4 0 0 0 1.8,0.69 8.63,8.63 0 0 0 1.57,0.22 h 3.4 V 59.05 A 2.15,2.15 0 0 1 33,58.63 4.93,4.93 0 0 1 31.85,57.32 Z"
         fill="#c82128"
         id="path124" />
      <path
         d="m 47.76,43.2 h 0.3 a 1,1 0 0 1 0.83,0.46 0.81,0.81 0 0 1 0,0.91 l -3.5,6 -3.5,-6 a 0.93,0.93 0 0 1 0.82,-1.4 H 43 V 42.9 h -8.89 v 0.27 h 0.33 a 2.58,2.58 0 0 1 1.39,0.39 3.17,3.17 0 0 1 0.9,0.8 l 4.83,7.45 v 5.78 a 1.34,1.34 0 0 1 -0.43,1 1.48,1.48 0 0 1 -1,0.41 H 39.8 v 0.27 H 48 V 59 h -0.3 a 1.5,1.5 0 0 1 -1.5,-1.42 v -5.72 l 4.71,-7.32 a 3.61,3.61 0 0 1 1,-0.94 2.53,2.53 0 0 1 1.38,-0.4 h 0.33 v -0.27 h -5.9 z"
         fill="#c82128"
         id="path126" />
      <path
         d="m 72.74,51.34 a 14.4,14.4 0 0 1 -1.26,4.19 4.87,4.87 0 0 1 -2.2,2.24 8.14,8.14 0 0 1 -3.53,0.67 5.65,5.65 0 0 1 -3.34,-1.12 6.78,6.78 0 0 1 -2.18,-3 12.94,12.94 0 0 1 -0.76,-4.65 11.7,11.7 0 0 1 0.81,-4.59 6.54,6.54 0 0 1 2.3,-3 6.19,6.19 0 0 1 3.61,-1 6.44,6.44 0 0 1 3.81,1.13 6.75,6.75 0 0 1 2.38,3.94 h 0.25 l 0.11,-5 a 14.39,14.39 0 0 0 -2.91,-1 17.83,17.83 0 0 0 -4,-0.41 14.8,14.8 0 0 0 -6.22,1.26 8.82,8.82 0 0 0 -4,3.41 9.86,9.86 0 0 0 -1.38,5.31 9.82,9.82 0 0 0 1.4,5.38 9,9 0 0 0 4,3.38 15,15 0 0 0 6.09,1.2 11.56,11.56 0 0 0 3.6,-0.49 7.93,7.93 0 0 0 2.5,-1.28 6.58,6.58 0 0 0 1.57,-1.75 L 73,51.34 Z"
         fill="#1e1e1e"
         fill-opacity="0.78"
         id="path128" />
      <path
         d="m 94.52,51.15 a 9.15,9.15 0 0 0 -0.67,-3.61 7.08,7.08 0 0 0 -2,-2.68 8.7,8.7 0 0 0 -3.11,-1.68 14.43,14.43 0 0 0 -8.1,0 8.84,8.84 0 0 0 -3.12,1.68 7.06,7.06 0 0 0 -2,2.68 9.15,9.15 0 0 0 -0.67,3.61 8.93,8.93 0 0 0 0.67,3.56 7,7 0 0 0 2,2.67 8.84,8.84 0 0 0 3.12,1.68 14.43,14.43 0 0 0 8.1,0 8.7,8.7 0 0 0 3.11,-1.68 7.05,7.05 0 0 0 2,-2.67 8.93,8.93 0 0 0 0.67,-3.56 z m -5.47,3.94 a 5.69,5.69 0 0 1 -1.68,2.53 4.47,4.47 0 0 1 -5.3,0 5.62,5.62 0 0 1 -1.69,-2.53 11.54,11.54 0 0 1 -0.6,-3.94 11.8,11.8 0 0 1 0.6,-4 5.6,5.6 0 0 1 1.69,-2.54 4.47,4.47 0 0 1 5.3,0 5.66,5.66 0 0 1 1.68,2.54 12.09,12.09 0 0 1 0.58,4 11.82,11.82 0 0 1 -0.58,3.94 z"
         fill="#1e1e1e"
         fill-opacity="0.78"
         id="path130" />
      <path
         d="m 117.56,59 a 1.77,1.77 0 0 1 -1.72,-1.45 l -2.16,-15 h -0.24 L 106.16,53.42 98.23,42.6 H 98 l -2.1,15 a 1.49,1.49 0 0 1 -0.58,1.06 1.87,1.87 0 0 1 -1.16,0.39 h -0.39 v 0.27 H 99 V 59 h -0.38 a 0.78,0.78 0 0 1 -0.75,-0.4 1.39,1.39 0 0 1 -0.18,-0.64 l 0.86,-6.72 6.19,8.58 H 105 a 3.73,3.73 0 0 1 0.23,-1.26 10.39,10.39 0 0 1 0.75,-1.5 L 110.06,51.01 111,58 a 1.32,1.32 0 0 1 -0.15,0.67 0.75,0.75 0 0 1 -0.75,0.4 h -0.41 v 0.27 h 8 V 59 Z"
         fill="#1e1e1e"
         fill-opacity="0.78"
         id="path132" />
      <path
         d="m 141.55,59 a 1.77,1.77 0 0 1 -1.72,-1.45 l -2.16,-15 h -0.24 L 130.15,53.42 122.22,42.6 H 122 l -2.11,15 a 1.5,1.5 0 0 1 -0.59,1.06 1.85,1.85 0 0 1 -1.16,0.39 h -0.38 v 0.27 H 123 V 59 h -0.39 a 0.78,0.78 0 0 1 -0.75,-0.4 1.25,1.25 0 0 1 -0.17,-0.64 l 0.85,-6.72 6.19,8.58 H 129 a 3.52,3.52 0 0 1 0.24,-1.26 8.66,8.66 0 0 1 0.75,-1.5 L 134.07,51.01 135,58 a 1.58,1.58 0 0 1 -0.15,0.67 0.75,0.75 0 0 1 -0.75,0.4 h -0.41 v 0.27 H 142 V 59 Z"
         fill="#1e1e1e"
         fill-opacity="0.78"
         id="path134" />
    </g>
  </g>
</svg>
